<svg xmlns="http://www.w3.org/2000/svg" xmlns:xlink="http://www.w3.org/1999/xlink" viewBox="0 0 152 146" width="104" height="100"><defs><style>.cls-1{mask:url(#mask);}.cls-2{mask:url(#mask-1);}.cls-3{stroke-width:.25px;}.cls-3,.cls-4{fill:#5f6368;}.cls-3,.cls-5{stroke:#5f6368;stroke-miterlimit:10;}.cls-6{fill:#34a853;}.cls-7{fill:#fbbc04;}.cls-8{fill:#fff;}.cls-9{fill:#ea4335;}.cls-5{fill:none;stroke-width:.79px;}.cls-10{fill:#4284f4;}</style><mask id="mask" x="4.36" y="4.35" width="143.28" height="136.72" maskUnits="userSpaceOnUse"><g id="mask0_28_8176"><path class="cls-8" d="M147.64,4.36H4.36v136.71h143.28V4.36Z"></path></g></mask><mask id="mask-1" x="4" y="4.35" width="143.65" height="136.72" maskUnits="userSpaceOnUse"><g id="mask1_28_8176"><path class="cls-8" d="M147.28,4.36H4v136.71h143.28V4.36Z"></path></g></mask></defs><g id="Layer_1"><path class="cls-8" d="M144.05,140.67H7.99c-1.74,0-3.16-1.41-3.16-3.16V7.91c0-1.74,1.41-3.16,3.16-3.16h136.06c1.74,0,3.16,1.41,3.16,3.16v129.6c0,1.74-1.41,3.16-3.16,3.16Z"></path><g class="cls-1"><path class="cls-5" d="M144.05,140.67H7.99c-1.74,0-3.16-1.41-3.16-3.16V7.91c0-1.74,1.41-3.16,3.16-3.16h136.06c1.74,0,3.16,1.41,3.16,3.16v129.6c0,1.74-1.41,3.16-3.16,3.16Z"></path><path class="cls-8" d="M144.09,140.67H7.91c-1.74,0-3.16-1.41-3.16-3.16V7.91c0-1.74,1.41-3.16,3.16-3.16h136.18c1.74,0,3.16,1.41,3.16,3.16v129.6c0,1.74-1.41,3.16-3.16,3.16Z"></path><path class="cls-4" d="M4.75,112.92v22.86c0,3.46,1.25,4.89,4.89,4.89h132.72c3.85,0,5.71,0,4.89-4.89v-22.86H4.75Z"></path></g><g class="cls-2"><path class="cls-5" d="M144.09,140.67H7.91c-1.74,0-3.16-1.41-3.16-3.16V7.91c0-1.74,1.41-3.16,3.16-3.16h136.18c1.74,0,3.16,1.41,3.16,3.16v129.6c0,1.74-1.41,3.16-3.16,3.16Z"></path></g><path class="cls-3" d="M30.27,91.51c-.81-.47-1.45-1.11-1.93-1.93-.48-.82-.71-1.73-.71-2.72s.24-1.9.71-2.72c.47-.82,1.12-1.46,1.93-1.93.81-.47,1.7-.7,2.66-.7.75,0,1.46.13,2.12.4.66.27,1.21.64,1.64,1.13l-.87.87c-.32-.4-.74-.71-1.24-.92-.51-.21-1.05-.32-1.63-.32-.72,0-1.4.17-2.02.52-.62.35-1.12.84-1.5,1.47-.38.63-.56,1.37-.56,2.2s.19,1.56.56,2.2c.37.64.88,1.12,1.51,1.47.63.35,1.3.52,2.02.52s1.26-.11,1.72-.32c.46-.21.86-.5,1.19-.85.25-.27.45-.59.6-.97.15-.38.25-.79.29-1.25h-3.79v-1.13h4.92c.05.27.07.51.07.74,0,.63-.1,1.24-.3,1.84s-.52,1.12-.96,1.57c-.94,1.02-2.2,1.53-3.76,1.53-.96,0-1.85-.23-2.66-.7h-.01ZM40.96,91.7c-.57-.34-1.02-.81-1.34-1.4-.32-.59-.48-1.24-.48-1.96s.16-1.37.48-1.96c.32-.59.77-1.06,1.34-1.4.57-.34,1.22-.51,1.93-.51s1.36.17,1.93.51c.57.34,1.02.81,1.34,1.4.32.59.48,1.24.48,1.96s-.16,1.37-.48,1.96c-.32.59-.77,1.06-1.34,1.4-.57.34-1.22.51-1.93.51s-1.36-.17-1.93-.51ZM44.14,90.78c.39-.22.7-.55.93-.97s.35-.91.35-1.47-.12-1.05-.35-1.47c-.23-.42-.54-.74-.93-.96s-.8-.34-1.25-.34-.87.11-1.26.34c-.39.22-.7.55-.94.96-.23.42-.35.91-.35,1.47s.12,1.05.35,1.47.55.74.94.97c.39.22.81.34,1.26.34s.87-.11,1.25-.34ZM49.47,91.7c-.57-.34-1.02-.81-1.34-1.4-.32-.59-.48-1.24-.48-1.96s.16-1.37.48-1.96c.32-.59.77-1.06,1.34-1.4.57-.34,1.22-.51,1.93-.51s1.36.17,1.93.51c.57.34,1.02.81,1.34,1.4.32.59.48,1.24.48,1.96s-.16,1.37-.48,1.96c-.32.59-.77,1.06-1.34,1.4-.57.34-1.22.51-1.93.51s-1.36-.17-1.93-.51ZM52.65,90.78c.39-.22.7-.55.93-.97s.35-.91.35-1.47-.12-1.05-.35-1.47c-.23-.42-.54-.74-.93-.96-.39-.22-.8-.34-1.25-.34s-.87.11-1.26.34c-.39.22-.7.55-.94.96-.23.42-.35.91-.35,1.47s.12,1.05.35,1.47c.23.42.55.74.94.97.39.22.81.34,1.26.34s.87-.11,1.25-.34ZM57.63,94.7c-.56-.4-.93-.88-1.12-1.44l1.1-.47c.16.42.43.76.81,1.02.38.26.82.39,1.34.39.75,0,1.34-.21,1.75-.63s.62-1.02.62-1.8v-.81h-.06c-.24.37-.57.67-1.01.91-.43.23-.93.35-1.48.35-.63,0-1.2-.16-1.72-.49-.52-.33-.93-.79-1.24-1.37-.31-.59-.46-1.26-.46-2.01s.15-1.41.46-2,.72-1.05,1.24-1.38c.52-.33,1.09-.49,1.72-.49.55,0,1.05.12,1.48.35.43.23.77.54,1.01.92h.06v-1.04h1.16v7.01c0,1.17-.32,2.07-.97,2.68-.65.61-1.5.92-2.56.92-.86,0-1.57-.2-2.12-.6v-.02ZM60.95,90.78c.36-.22.64-.54.86-.96.21-.42.32-.91.32-1.48s-.11-1.08-.32-1.5-.5-.73-.86-.95c-.36-.22-.76-.33-1.19-.33s-.84.11-1.2.33c-.36.22-.65.54-.87.96-.21.42-.32.91-.32,1.48s.11,1.07.32,1.49.5.74.87.96c.37.22.76.33,1.2.33s.84-.11,1.19-.33ZM65.08,81.75h1.22v10.24h-1.22v-10.24ZM69.47,91.72c-.55-.33-.98-.79-1.29-1.38-.31-.59-.46-1.25-.46-1.98s.15-1.35.44-1.95c.29-.59.7-1.06,1.24-1.42.53-.35,1.15-.53,1.86-.53s1.33.16,1.86.48c.52.32.93.76,1.21,1.32.28.56.42,1.21.42,1.93,0,.14-.01.27-.04.37h-5.76c.03.55.16,1.02.4,1.4s.54.67.91.86c.37.19.75.29,1.15.29.93,0,1.65-.44,2.16-1.32l1.03.5c-.31.59-.74,1.06-1.28,1.4-.54.34-1.19.51-1.95.51-.7,0-1.32-.17-1.87-.5l-.03.02ZM73.45,87.57c-.02-.3-.11-.61-.26-.92-.15-.3-.39-.56-.72-.77-.33-.21-.74-.31-1.24-.31-.57,0-1.06.18-1.45.55-.4.37-.66.85-.78,1.45h4.45ZM79.14,81.75h3.45c.57,0,1.1.13,1.59.39s.87.62,1.17,1.08c.29.46.44.98.44,1.57s-.15,1.1-.44,1.57c-.29.46-.68.82-1.17,1.08-.49.26-1.02.39-1.59.39h-2.25v4.18h-1.2v-10.26ZM82.62,86.65c.38,0,.72-.09,1.01-.27s.52-.41.68-.7c.16-.29.24-.59.24-.9s-.08-.61-.24-.9c-.16-.29-.39-.52-.68-.7s-.63-.27-1.01-.27h-2.27v3.75h2.27ZM88.23,91.9c-.42-.21-.74-.5-.97-.87-.23-.37-.34-.78-.34-1.25,0-.77.29-1.38.87-1.81s1.32-.65,2.2-.65c.44,0,.85.05,1.22.14.38.1.67.21.87.33v-.44c0-.54-.19-.98-.57-1.31-.38-.33-.86-.49-1.44-.49-.41,0-.79.09-1.13.26-.34.18-.61.42-.81.74l-.92-.69c.29-.44.68-.78,1.18-1.03s1.06-.37,1.67-.37c.99,0,1.77.26,2.34.78.57.52.85,1.23.85,2.12v4.62h-1.16v-1.04h-.06c-.21.35-.52.65-.94.9-.42.25-.89.37-1.42.37s-1.01-.1-1.43-.31h-.01ZM90.92,90.83c.35-.21.63-.49.84-.84.21-.35.31-.74.31-1.16-.23-.15-.51-.28-.84-.37-.33-.09-.69-.14-1.06-.14-.67,0-1.17.14-1.51.42-.34.28-.51.63-.51,1.07,0,.4.15.72.46.97.31.25.69.37,1.16.37.41,0,.79-.1,1.14-.31h.01ZM94.72,84.81h1.16v1.16h.06c.17-.43.46-.76.87-1,.41-.24.86-.36,1.34-.36.21,0,.39,0,.53.04v1.24c-.16-.04-.38-.06-.66-.06-.62,0-1.12.21-1.51.61-.39.41-.58.94-.58,1.6v4.05h-1.22v-7.29h.01ZM102.12,92.07c-.25-.1-.46-.23-.64-.39-.19-.18-.33-.4-.43-.64-.1-.24-.14-.54-.14-.89v-4.35h-1.27v-1.1h1.27v-2.06h1.21v2.06h1.77v1.1h-1.77v4.06c0,.41.08.71.23.91.18.21.44.32.79.32.28,0,.54-.08.8-.24v1.19c-.14.07-.29.11-.44.14s-.34.04-.56.04c-.3,0-.57-.05-.82-.15ZM105.29,84.69h1.16v1.07h.06c.2-.36.52-.67.96-.92s.91-.38,1.4-.38c.88,0,1.55.25,2.01.76.46.51.69,1.2.69,2.08v4.68h-1.22v-4.49c0-.68-.16-1.17-.49-1.47-.32-.3-.77-.46-1.33-.46-.39,0-.74.11-1.05.33-.31.22-.55.51-.72.87-.17.36-.26.73-.26,1.12v4.1h-1.22v-7.29h.01ZM114.68,91.71c-.55-.33-.98-.79-1.29-1.38-.31-.59-.46-1.25-.46-1.98s.15-1.35.44-1.95c.29-.59.7-1.06,1.24-1.42s1.15-.53,1.86-.53,1.33.16,1.86.48.93.76,1.21,1.32c.28.56.42,1.21.42,1.93,0,.14-.01.27-.04.37h-5.76c.03.55.16,1.02.4,1.4.24.38.54.67.91.86.37.19.75.29,1.15.29.93,0,1.65-.44,2.16-1.32l1.03.5c-.32.59-.74,1.06-1.28,1.4-.54.34-1.19.51-1.95.51-.7,0-1.32-.17-1.87-.5l-.03.02ZM118.66,87.56c-.02-.3-.11-.61-.26-.92-.15-.3-.39-.56-.72-.77-.33-.21-.74-.31-1.24-.31-.57,0-1.06.18-1.45.55-.4.37-.66.85-.78,1.45h4.45ZM121.35,84.69h1.16v1.17h.06c.14-.4.42-.73.83-1,.41-.27.84-.4,1.29-.4.33,0,.62.05.86.16v1.3c-.31-.15-.65-.23-1.03-.23-.35,0-.68.1-.97.3-.3.2-.53.47-.71.81-.18.34-.26.7-.26,1.1v4.08h-1.22v-7.29h-.01Z"></path><path class="cls-10" d="M97.11,48.04c0-1.53-.24-3-.49-4.42h-20.12v8.34h11.29c-.5,2.7-1.78,4.99-4.07,6.53v5.44h6.99c4.07-3.76,6.41-9.32,6.41-15.89h-.01Z"></path><path class="cls-6" d="M76.43,69.15c5.81,0,10.7-1.91,14.27-5.21l-6.99-5.44c-1.92,1.3-4.39,2.06-7.29,2.06-5.6,0-10.36-3.79-12.06-8.9h-7.18v5.59c3.54,7.06,10.82,11.9,19.24,11.9h.01Z"></path><path class="cls-7" d="M64.37,51.66c-.43-1.3-.67-2.68-.67-4.11s.24-2.81.67-4.11v-5.59h-7.18c-1.46,2.92-2.29,6.21-2.29,9.7s.83,6.78,2.29,9.7l7.18-5.59Z"></path><path class="cls-9" d="M76.43,34.54c3.16,0,6,1.09,8.24,3.23l6.17-6.19c-3.73-3.49-8.6-5.63-14.41-5.63-8.41,0-15.7,4.84-19.24,11.9l7.18,5.59c1.7-5.11,6.45-8.9,12.06-8.9Z"></path></g><g id="_x32_025"><path class="cls-8" d="M39.98,122.29h2.85c.48,0,.93.11,1.34.32s.74.51.98.9c.24.38.36.82.36,1.3s-.12.92-.36,1.3c-.24.38-.57.68-.98.9-.41.21-.86.32-1.34.32h-1.56v3.2h-1.29v-8.23ZM42.86,126.11c.28,0,.53-.06.74-.19.21-.13.36-.29.47-.49s.16-.41.16-.62-.05-.42-.16-.62c-.11-.2-.26-.36-.47-.48-.21-.12-.45-.18-.74-.18h-1.59v2.59h1.59Z"></path><path class="cls-8" d="M46.54,122.29h2.9c.49,0,.94.11,1.35.32.41.21.73.51.96.9.23.38.35.82.35,1.3,0,.55-.18,1.04-.53,1.47-.36.43-.8.72-1.34.86v.06s2.24,3.25,2.24,3.25v.07h-1.49l-2.17-3.22h-.97v3.22h-1.29v-8.23ZM49.4,126.11c.38,0,.71-.12.98-.37.27-.25.4-.56.4-.94,0-.21-.05-.42-.16-.62s-.26-.36-.46-.49c-.2-.13-.44-.19-.71-.19h-1.62v2.61h1.58Z"></path><path class="cls-8" d="M53.29,122.29h5v1.23h-3.71v2.28h3.35v1.22h-3.35v2.28h3.71v1.23h-5v-8.23Z"></path><path class="cls-8" d="M59.6,122.29h1.75l2.37,6.25h.07l2.37-6.25h1.75v8.23h-1.28v-4.61l.07-1.48h-.07l-2.36,6.09h-1.03l-2.36-6.09h-.07l.07,1.48v4.61h-1.28v-8.23Z"></path><path class="cls-8" d="M69.5,122.29h1.29v8.23h-1.29v-8.23Z"></path><path class="cls-8" d="M72.38,122.29h5v1.23h-3.71v2.28h3.35v1.22h-3.35v2.28h3.71v1.23h-5v-8.23Z"></path><path class="cls-8" d="M78.69,122.29h2.9c.49,0,.94.11,1.35.32s.73.51.96.9c.23.38.35.82.35,1.3,0,.55-.18,1.04-.53,1.47-.36.43-.8.72-1.34.86v.06s2.24,3.25,2.24,3.25v.07h-1.5l-2.17-3.22h-.97v3.22h-1.29v-8.23ZM81.56,126.11c.38,0,.71-.12.98-.37.27-.25.4-.56.4-.94,0-.21-.05-.42-.16-.62s-.26-.36-.46-.49c-.2-.13-.44-.19-.71-.19h-1.62v2.61h1.58Z"></path><path class="cls-8" d="M87.45,129.33c.25-.25.73-.73,1.45-1.45s1.2-1.22,1.44-1.48c.32-.34.54-.62.66-.84s.18-.47.18-.77-.12-.56-.35-.78c-.23-.22-.54-.33-.93-.33-.36,0-.65.11-.88.32-.23.21-.37.45-.44.73l-1.15-.47c.08-.28.22-.55.43-.82s.49-.49.85-.68c.35-.18.76-.28,1.22-.28.5,0,.94.1,1.33.3.39.2.69.48.9.83s.32.73.32,1.16c0,.45-.12.89-.35,1.31-.23.42-.53.81-.89,1.17-.15.15-.54.53-1.16,1.15l-.94.94.02.05h3.43v1.15h-5.12v-1.2Z"></path><path class="cls-8" d="M94.96,130.17c-.49-.36-.87-.86-1.13-1.48s-.4-1.32-.4-2.09.13-1.47.4-2.1c.26-.62.64-1.12,1.13-1.48.49-.36,1.06-.54,1.7-.54s1.21.18,1.7.54c.49.36.86.85,1.13,1.48.26.62.4,1.33.4,2.1s-.13,1.46-.4,2.09-.64,1.12-1.13,1.48c-.49.36-1.05.55-1.69.55s-1.21-.18-1.7-.55ZM97.69,129.13c.29-.26.52-.61.68-1.05.16-.44.24-.94.24-1.49s-.08-1.05-.24-1.5c-.16-.44-.38-.79-.68-1.05-.3-.25-.64-.38-1.03-.38s-.74.13-1.04.38-.52.6-.67,1.05-.24.94-.24,1.5.08,1.05.24,1.49c.16.44.38.79.67,1.05s.64.39,1.04.39.73-.13,1.03-.39Z"></path><path class="cls-8" d="M100.62,129.33c.25-.25.73-.73,1.45-1.45s1.2-1.22,1.44-1.48c.32-.34.54-.62.66-.84s.18-.47.18-.77-.12-.56-.35-.78c-.23-.22-.54-.33-.93-.33-.36,0-.65.11-.88.32-.23.21-.37.45-.44.73l-1.15-.47c.08-.28.22-.55.43-.82s.49-.49.85-.68c.35-.18.76-.28,1.22-.28.5,0,.94.1,1.33.3.39.2.69.48.9.83s.32.73.32,1.16c0,.45-.12.89-.35,1.31-.23.42-.53.81-.89,1.17-.15.15-.54.53-1.16,1.15l-.94.94.02.05h3.43v1.15h-5.12v-1.2Z"></path><path class="cls-8" d="M108.14,130.48c-.37-.16-.7-.39-.98-.71s-.48-.71-.6-1.18l1.14-.45c.1.41.29.75.56,1,.27.25.61.38,1.01.38.43,0,.79-.14,1.07-.41.28-.27.43-.62.43-1.05s-.14-.78-.42-1.06-.64-.42-1.08-.42c-.25,0-.48.05-.69.16-.21.11-.39.26-.53.45l-1.25-.55.48-3.97h4.28v1.15h-3.22l-.29,2.07h.07c.4-.3.86-.46,1.39-.46.45,0,.86.11,1.25.33.39.22.7.53.93.93.23.4.34.85.34,1.36s-.12.96-.36,1.37-.57.72-.98.95c-.42.23-.89.34-1.41.34-.38,0-.76-.08-1.13-.24Z"></path></g></svg>