<svg xmlns="http://www.w3.org/2000/svg" height="50" viewBox="34 153 636.54 183" fill="none"><rect x="34" y="153" width="86" height="86" fill="#F1521B"></rect><rect x="130" y="153" width="86" height="86" fill="#80CD29"></rect><rect x="34" y="250" width="86" height="86" fill="#00ADEF"></rect><rect x="130" y="250" width="86" height="86" fill="#FABC09"></rect><path d="M262.242 163.906L282.75 218.398L303.209 163.906H319.176V235H306.871V211.562L308.092 180.215L287.096 235H278.258L257.311 180.264L258.531 211.562V235H246.227V163.906H262.242ZM345.433 235H333.568V182.168H345.433V235ZM332.836 168.447C332.836 166.624 333.405 165.111 334.545 163.906C335.716 162.702 337.377 162.1 339.525 162.1C341.673 162.1 343.334 162.702 344.505 163.906C345.677 165.111 346.263 166.624 346.263 168.447C346.263 170.238 345.677 171.735 344.505 172.939C343.334 174.111 341.673 174.697 339.525 174.697C337.377 174.697 335.716 174.111 334.545 172.939C333.405 171.735 332.836 170.238 332.836 168.447ZM380.236 226.504C383.198 226.504 385.656 225.641 387.609 223.916C389.562 222.191 390.603 220.059 390.734 217.52H401.915C401.785 220.807 400.76 223.883 398.839 226.748C396.919 229.58 394.314 231.826 391.027 233.486C387.739 235.146 384.191 235.977 380.382 235.977C372.993 235.977 367.133 233.584 362.804 228.799C358.475 224.014 356.31 217.406 356.31 208.975V207.754C356.31 199.714 358.458 193.285 362.755 188.467C367.052 183.617 372.911 181.191 380.333 181.191C386.616 181.191 391.726 183.031 395.665 186.709C399.637 190.355 401.72 195.156 401.915 201.113H390.734C390.603 198.086 389.562 195.596 387.609 193.643C385.688 191.689 383.23 190.713 380.236 190.713C376.394 190.713 373.432 192.113 371.349 194.912C369.266 197.679 368.208 201.895 368.175 207.559V209.463C368.175 215.192 369.2 219.473 371.251 222.305C373.335 225.104 376.329 226.504 380.236 226.504ZM438.671 193.008C437.108 192.747 435.497 192.617 433.837 192.617C428.401 192.617 424.738 194.701 422.85 198.867V235H410.985V182.168H422.313L422.606 188.076C425.471 183.486 429.442 181.191 434.52 181.191C436.213 181.191 437.613 181.419 438.72 181.875L438.671 193.008ZM442.321 208.096C442.321 202.92 443.346 198.265 445.397 194.131C447.448 189.964 450.329 186.774 454.04 184.561C457.75 182.314 462.015 181.191 466.833 181.191C473.961 181.191 479.739 183.486 484.167 188.076C488.626 192.666 491.035 198.753 491.393 206.338L491.442 209.121C491.442 214.329 490.433 218.984 488.415 223.086C486.429 227.188 483.564 230.361 479.821 232.607C476.11 234.854 471.813 235.977 466.93 235.977C459.476 235.977 453.502 233.503 449.01 228.555C444.551 223.574 442.321 216.95 442.321 208.682V208.096ZM454.186 209.121C454.186 214.557 455.309 218.822 457.555 221.914C459.801 224.974 462.926 226.504 466.93 226.504C470.934 226.504 474.043 224.941 476.256 221.816C478.502 218.691 479.625 214.118 479.625 208.096C479.625 202.757 478.47 198.525 476.159 195.4C473.88 192.275 470.771 190.713 466.833 190.713C462.959 190.713 459.883 192.259 457.604 195.352C455.325 198.411 454.186 203.001 454.186 209.121ZM531.225 220.645C531.225 218.529 530.346 216.917 528.588 215.811C526.863 214.704 523.982 213.727 519.945 212.881C515.909 212.035 512.54 210.96 509.838 209.658C503.914 206.794 500.951 202.643 500.951 197.207C500.951 192.65 502.872 188.841 506.713 185.781C510.554 182.721 515.437 181.191 521.361 181.191C527.677 181.191 532.771 182.754 536.645 185.879C540.551 189.004 542.504 193.057 542.504 198.037H530.639C530.639 195.758 529.792 193.87 528.1 192.373C526.407 190.843 524.161 190.078 521.361 190.078C518.757 190.078 516.625 190.68 514.965 191.885C513.337 193.089 512.524 194.701 512.524 196.719C512.524 198.542 513.289 199.958 514.818 200.967C516.348 201.976 519.441 203.001 524.096 204.043C528.751 205.052 532.397 206.273 535.033 207.705C537.703 209.105 539.672 210.798 540.942 212.783C542.244 214.769 542.895 217.178 542.895 220.01C542.895 224.762 540.925 228.62 536.986 231.582C533.048 234.512 527.888 235.977 521.508 235.977C517.179 235.977 513.321 235.195 509.936 233.633C506.55 232.07 503.914 229.922 502.026 227.188C500.137 224.453 499.193 221.507 499.193 218.35H510.717C510.88 221.149 511.938 223.314 513.891 224.844C515.844 226.341 518.432 227.09 521.654 227.09C524.779 227.09 527.156 226.504 528.783 225.332C530.411 224.128 531.225 222.565 531.225 220.645ZM551.183 208.096C551.183 202.92 552.209 198.265 554.26 194.131C556.31 189.964 559.191 186.774 562.902 184.561C566.613 182.314 570.877 181.191 575.695 181.191C582.824 181.191 588.602 183.486 593.029 188.076C597.489 192.666 599.898 198.753 600.256 206.338L600.304 209.121C600.304 214.329 599.295 218.984 597.277 223.086C595.291 227.188 592.427 230.361 588.683 232.607C584.972 234.854 580.676 235.977 575.793 235.977C568.338 235.977 562.365 233.503 557.873 228.555C553.413 223.574 551.183 216.95 551.183 208.682V208.096ZM563.049 209.121C563.049 214.557 564.172 218.822 566.418 221.914C568.664 224.974 571.789 226.504 575.793 226.504C579.797 226.504 582.905 224.941 585.119 221.816C587.365 218.691 588.488 214.118 588.488 208.096C588.488 202.757 587.332 198.525 585.021 195.4C582.743 192.275 579.634 190.713 575.695 190.713C571.821 190.713 568.745 192.259 566.467 195.352C564.188 198.411 563.049 203.001 563.049 209.121ZM614.648 235V190.957H606.591V182.168H614.648V177.334C614.648 171.475 616.275 166.95 619.531 163.76C622.786 160.57 627.343 158.975 633.203 158.975C635.286 158.975 637.499 159.268 639.843 159.854L639.55 169.131C638.248 168.87 636.734 168.74 635.009 168.74C629.345 168.74 626.513 171.654 626.513 177.48V182.168H637.255V190.957H626.513V235H614.648ZM660.925 169.326V182.168H670.251V190.957H660.925V220.449C660.925 222.467 661.315 223.932 662.097 224.844C662.91 225.723 664.343 226.162 666.394 226.162C667.761 226.162 669.144 225.999 670.544 225.674V234.854C667.842 235.602 665.238 235.977 662.731 235.977C653.617 235.977 649.06 230.947 649.06 220.889V190.957H640.368V182.168H649.06V169.326H660.925Z" fill="#6F6D6E"></path><path d="M258.58 308.584V335H246.227V263.906H273.424C281.367 263.906 287.665 265.973 292.32 270.107C297.008 274.242 299.352 279.71 299.352 286.514C299.352 293.48 297.057 298.9 292.467 302.773C287.91 306.647 281.513 308.584 273.277 308.584H258.58ZM258.58 298.672H273.424C277.818 298.672 281.171 297.646 283.482 295.596C285.794 293.512 286.949 290.518 286.949 286.611C286.949 282.77 285.777 279.71 283.434 277.432C281.09 275.12 277.867 273.932 273.766 273.867H258.58V298.672ZM340.16 335C339.639 333.991 339.183 332.347 338.793 330.068C335.017 334.007 330.394 335.977 324.925 335.977C319.619 335.977 315.29 334.463 311.937 331.436C308.584 328.408 306.908 324.665 306.908 320.205C306.908 314.574 308.991 310.26 313.158 307.266C317.357 304.238 323.347 302.725 331.127 302.725H338.402V299.258C338.402 296.523 337.637 294.342 336.107 292.715C334.577 291.055 332.25 290.225 329.125 290.225C326.423 290.225 324.209 290.908 322.484 292.275C320.759 293.61 319.896 295.319 319.896 297.402H308.031C308.031 294.505 308.991 291.803 310.912 289.297C312.832 286.758 315.436 284.772 318.724 283.34C322.045 281.908 325.739 281.191 329.808 281.191C335.993 281.191 340.925 282.754 344.603 285.879C348.282 288.971 350.17 293.333 350.267 298.965V322.793C350.267 327.546 350.935 331.338 352.269 334.17V335H340.16ZM327.123 326.455C329.466 326.455 331.664 325.885 333.714 324.746C335.798 323.607 337.36 322.077 338.402 320.156V310.195H332.005C327.611 310.195 324.307 310.96 322.093 312.49C319.88 314.02 318.773 316.185 318.773 318.984C318.773 321.263 319.522 323.086 321.019 324.453C322.549 325.788 324.584 326.455 327.123 326.455ZM390.49 293.008C388.927 292.747 387.316 292.617 385.656 292.617C380.219 292.617 376.557 294.701 374.669 298.867V335H362.804V282.168H374.132L374.425 288.076C377.29 283.486 381.261 281.191 386.339 281.191C388.032 281.191 389.432 281.419 390.538 281.875L390.49 293.008ZM415.429 269.326V282.168H424.755V290.957H415.429V320.449C415.429 322.467 415.819 323.932 416.6 324.844C417.414 325.723 418.847 326.162 420.897 326.162C422.265 326.162 423.648 325.999 425.048 325.674V334.854C422.346 335.602 419.742 335.977 417.235 335.977C408.121 335.977 403.563 330.947 403.563 320.889V290.957H394.872V282.168H403.563V269.326H415.429ZM445.006 282.168L445.348 288.271C449.254 283.551 454.381 281.191 460.729 281.191C471.732 281.191 477.331 287.49 477.526 300.088V335H465.661V300.771C465.661 297.419 464.928 294.945 463.463 293.35C462.031 291.722 459.671 290.908 456.383 290.908C451.598 290.908 448.034 293.073 445.69 297.402V335H433.825V282.168H445.006ZM513.061 335.977C505.541 335.977 499.438 333.617 494.75 328.896C490.095 324.144 487.768 317.829 487.768 309.951V308.486C487.768 303.213 488.777 298.509 490.795 294.375C492.846 290.208 495.71 286.969 499.389 284.658C503.067 282.347 507.169 281.191 511.693 281.191C518.887 281.191 524.438 283.486 528.344 288.076C532.283 292.666 534.252 299.16 534.252 307.559V312.344H499.731C500.089 316.706 501.537 320.156 504.076 322.695C506.648 325.234 509.871 326.504 513.744 326.504C519.18 326.504 523.608 324.307 527.026 319.912L533.422 326.016C531.306 329.173 528.474 331.631 524.926 333.389C521.41 335.114 517.455 335.977 513.061 335.977ZM511.645 290.713C508.389 290.713 505.753 291.852 503.734 294.131C501.749 296.41 500.479 299.583 499.926 303.652H522.533V302.773C522.273 298.802 521.215 295.807 519.359 293.789C517.504 291.738 514.932 290.713 511.645 290.713ZM571.301 293.008C569.738 292.747 568.127 292.617 566.467 292.617C561.03 292.617 557.368 294.701 555.48 298.867V335H543.615V282.168H554.943L555.236 288.076C558.101 283.486 562.072 281.191 567.15 281.191C568.843 281.191 570.243 281.419 571.349 281.875L571.301 293.008Z" fill="#6F6D6E"></path></svg>